# xmcd CD database file
#
# Track frame offsets:
#	150
#	20516
#	40735
#	61090
#	81157
#	101116
#	120981
#	141708
#	156226
#	170441
#	182933
#	195472
#	210688
#	225979
#	238997
#	252139
#	265804
#	278619
#	291145
#	303462
#	316220
#	328997
#	341975
#
# Disc length: 4734 seconds
#
# Revision: 0
# Processed by: cddbd v1.5.2PL0 Copyright (c) Steve Scherf et al.
# Submitted via: CDex 1.51
#
DISCID=55127c17
DTITLE=Red Nichols - The Complete Brunswick Recordings - Volume 9
DYEAR=1900
DGENRE=Jazz
TTITLE0=New Orleans (Part 1) 1
TTITLE1=New Orleans (Part 1) 2
TTITLE2=California (Part 1) 1
TTITLE3=California (Part 1) 2
TTITLE4=California (Part 2) 1
TTITLE5=California (Part 2) 2
TTITLE6=California (Part 2) 3
TTITLE7=Goin' To Town
TTITLE8=Goofus
TTITLE9=Our Home Town Mountain Band 1
TTITLE10=Our Home Town Mountain Band 2
TTITLE11=Sugar
TTITLE12=Make Me Cot Where The Cot-Cot-Cotton Grows
TTITLE13=Harlem Twist
TTITLE14=If You Believed In Me
TTITLE15=The End Of The Lonesome Trail
TTITLE16=I May Be Wrong
TTITLE17=That's Where The South Begins 1
TTITLE18=That's Where The South Begins 2
TTITLE19=I'm Tickled Pink With A Blue-Eyed Baby 1
TTITLE20=I'm Tickled Pink With A Blue-Eyed Baby 2
TTITLE21=At Last I'm Happy
TTITLE22=If You Haven't Got A Girl
EXTD=
EXTT0=
EXTT1=
EXTT2=
EXTT3=
EXTT4=
EXTT5=
EXTT6=
EXTT7=
EXTT8=
EXTT9=
EXTT10=
EXTT11=
EXTT12=
EXTT13=
EXTT14=
EXTT15=
EXTT16=
EXTT17=
EXTT18=
EXTT19=
EXTT20=
EXTT21=
EXTT22=
PLAYORDER=
